<?xml version="1.0" encoding="utf-8"?>
<svg version="1.1" id="Layer_1" focusable="false" xmlns="http://www.w3.org/2000/svg" xmlns:xlink="http://www.w3.org/1999/xlink"
	 x="0px" y="0px" viewBox="-185 277 240 240" style="enable-background:new -185 277 240 240;" xml:space="preserve">
<path fill="#f00" d="M5.2,408.1c-3.7-6.3-10.4-10.3-17.7-10.6c-7.3,0.3-14,4.3-17.7,10.6c-8.6,14.2-8.6,32.1,0,46.3c3.7,6.3,10.4,10.3,17.7,10.6
	c7.3-0.3,14-4.3,17.7-10.6C13.8,440.1,13.8,422.3,5.2,408.1z M-12.5,455.3c-7.8,0-14.4-11-14.4-24.1c0-13.1,6.6-24.1,14.4-24.1
	s14.4,11,14.4,24.1C1.9,444.3-4.6,455.3-12.5,455.3z M-55.9,465v-51l-4.8,4.8l-6.8-6.8l13-13c1.9-1.9,4.9-1.9,6.8,0
	c0.9,0.9,1.4,2.1,1.4,3.4v62.7L-55.9,465z M-154.1,329.9H-24v-19.3c0-5.3,3.6-7.2,8-4.3l41.8,27.9c1.2,0.6,2.1,1.5,2.7,2.7
	c1.4,3,0.2,6.5-2.7,8L-16,372.8c-4.4,2.9-8,1-8-4.3v-19.3h-115.7v96.4h48.2v19.3h-62.7c-2.6,0-4.8-2.2-4.8-4.8V334.8
	C-159,332.1-156.8,329.9-154.1,329.9z"/>
</svg>