<svg version="1.1" xmlns="http://www.w3.org/2000/svg" width="32" height="32" viewBox="0 0 32 32">
<path fill="#f00" d="M25.333 5.333h-18.667c-1.48 0-2.667 1.2-2.667 2.667v16c0 1.467 1.187 2.667 2.667 2.667h18.667c1.467 0 2.667-1.2 2.667-2.667v-16c0-1.467-1.2-2.667-2.667-2.667zM25.333 24h-18.667v-16h18.667v16zM9.333 20h4c0.733 0 1.333-0.6 1.333-1.333v-1.333h-2v0.667h-2.667v-4h2.667v0.667h2v-1.333c0-0.733-0.6-1.333-1.333-1.333h-4c-0.733 0-1.333 0.6-1.333 1.333v5.333c0 0.733 0.6 1.333 1.333 1.333zM18.667 20h4c0.733 0 1.333-0.6 1.333-1.333v-1.333h-2v0.667h-2.667v-4h2.667v0.667h2v-1.333c0-0.733-0.6-1.333-1.333-1.333h-4c-0.733 0-1.333 0.6-1.333 1.333v5.333c0 0.733 0.6 1.333 1.333 1.333z"></path>
</svg>